<svg xmlns="http://www.w3.org/2000/svg" xmlns:xlink="http://www.w3.org/1999/xlink" width="500" zoomAndPan="magnify" viewBox="0 0 375 374.999991" height="500" preserveAspectRatio="xMidYMid meet" version="1.0"><defs><g/><clipPath id="a2f1fe7efa"><path d="M 109.84375 79.242188 L 281.105469 79.242188 L 281.105469 250.5 L 109.84375 250.5 Z M 109.84375 79.242188 " clip-rule="nonzero"/></clipPath><clipPath id="85537bed5e"><path d="M 195.472656 79.242188 C 148.183594 79.242188 109.84375 117.582031 109.84375 164.871094 C 109.84375 212.164062 148.183594 250.5 195.472656 250.5 C 242.765625 250.5 281.105469 212.164062 281.105469 164.871094 C 281.105469 117.582031 242.765625 79.242188 195.472656 79.242188 Z M 195.472656 79.242188 " clip-rule="nonzero"/></clipPath><clipPath id="91b1037f68"><path d="M 136.757812 129.0625 L 238.757812 129.0625 L 238.757812 201 L 136.757812 201 Z M 136.757812 129.0625 " clip-rule="nonzero"/></clipPath><clipPath id="073ee5b014"><path d="M 157 202 L 173 202 L 173 217.5625 L 157 217.5625 Z M 157 202 " clip-rule="nonzero"/></clipPath><clipPath id="cbbd5f7f6f"><path d="M 215 202 L 231 202 L 231 217.5625 L 215 217.5625 Z M 215 202 " clip-rule="nonzero"/></clipPath></defs><rect x="-37.5" width="450" fill="#ffffff" y="-37.499999" height="449.999989" fill-opacity="1"/><rect x="-37.5" width="450" fill="#ffffff" y="-37.499999" height="449.999989" fill-opacity="1"/><g clip-path="url(#a2f1fe7efa)"><g clip-path="url(#85537bed5e)"><path fill="#38b6ff" d="M 109.84375 79.242188 L 281.105469 79.242188 L 281.105469 250.5 L 109.84375 250.5 Z M 109.84375 79.242188 " fill-opacity="1" fill-rule="nonzero"/></g></g><g clip-path="url(#91b1037f68)"><path fill="#ffffff" d="M 238.875 143.109375 C 238.613281 141.855469 237.488281 140.835938 236.191406 140.820312 C 210.773438 140.808594 185.351562 140.816406 159.933594 140.824219 C 159.421875 140.824219 159.492188 140.820312 159.347656 140.398438 C 158.921875 138.925781 158.464844 137.464844 158.035156 135.992188 C 156.949219 132.121094 153.394531 129.144531 149.324219 129.097656 C 148.105469 129.0625 146.890625 129.0625 145.671875 129.0625 C 143.855469 129.0625 142.039062 129.070312 140.222656 129.0625 C 139.664062 129.0625 139.132812 129.175781 138.625 129.414062 C 135.792969 130.765625 136.363281 134.953125 139.503906 135.515625 C 142.90625 135.707031 146.335938 135.515625 149.75 135.582031 C 151.074219 135.597656 152.058594 136.46875 152.328125 137.738281 C 153.160156 140.511719 153.992188 143.289062 154.820312 146.066406 C 157.253906 154.171875 159.640625 162.289062 162.066406 170.394531 C 163.054688 173.644531 164.007812 176.90625 165.007812 180.152344 C 165.363281 181.300781 165.921875 182.332031 166.683594 183.253906 C 166.917969 183.539062 167.148438 183.820312 167.378906 184.105469 C 167.410156 184.144531 167.40625 184.210938 167.367188 184.238281 C 163.117188 187.226562 159.898438 191.644531 158.199219 196.546875 C 157.824219 197.535156 157.738281 198.433594 158.316406 199.375 C 158.886719 200.289062 159.695312 200.796875 160.789062 200.820312 C 172.804688 200.839844 184.824219 200.828125 196.839844 200.832031 C 208.625 200.832031 220.40625 200.828125 232.191406 200.824219 C 233.066406 200.859375 233.957031 200.773438 234.644531 200.179688 C 236.820312 198.394531 235.222656 195.164062 232.746094 195.140625 C 219.796875 195.09375 206.84375 195.136719 193.894531 195.125 C 184.492188 195.113281 175.09375 195.132812 165.691406 195.132812 C 165.5 195.105469 165.621094 194.898438 165.6875 194.777344 C 167.257812 191.527344 169.832031 188.769531 173.113281 187.222656 C 188.445312 187.230469 203.914062 187.257812 219.292969 187.222656 C 222.144531 187.183594 224.953125 185.804688 226.710938 183.5625 C 228.34375 181.542969 228.679688 178.890625 229.453125 176.484375 C 231.019531 171.042969 232.636719 165.613281 234.203125 160.171875 C 235.371094 156.003906 236.621094 151.855469 237.824219 147.695312 C 238.074219 146.832031 238.328125 145.96875 238.578125 145.105469 C 238.757812 144.453125 239.058594 143.792969 238.875 143.109375 Z M 205.316406 158.691406 C 205.488281 155.0625 205.691406 151.433594 205.855469 147.804688 C 205.882812 147.320312 205.902344 147.339844 206.355469 147.339844 C 210.6875 147.367188 215.023438 147.320312 219.355469 147.347656 C 219.472656 147.355469 219.539062 147.414062 219.515625 147.546875 C 219.183594 149.652344 218.792969 151.75 218.40625 153.847656 C 218.113281 155.488281 217.796875 157.121094 217.523438 158.765625 C 217.496094 158.925781 217.425781 158.984375 217.246094 158.980469 C 215.296875 158.941406 213.34375 158.972656 211.394531 158.960938 C 211.394531 158.957031 211.394531 158.953125 211.394531 158.949219 C 209.414062 158.949219 207.429688 159.003906 205.449219 158.976562 C 205.328125 158.949219 205.304688 158.796875 205.316406 158.691406 Z M 164.820312 158.84375 C 163.703125 155.183594 162.65625 151.503906 161.589844 147.828125 C 161.585938 147.703125 161.390625 147.378906 161.578125 147.339844 C 162.828125 147.328125 164.078125 147.339844 165.324219 147.335938 C 165.324219 147.335938 165.324219 147.339844 165.324219 147.339844 C 166.472656 147.339844 167.625 147.339844 168.773438 147.339844 C 169.25 147.339844 169.234375 147.347656 169.308594 147.800781 C 169.527344 149.144531 169.730469 150.496094 169.945312 151.84375 C 170.3125 154.125 170.679688 156.410156 171.03125 158.695312 C 171.058594 158.941406 170.980469 158.984375 170.757812 158.976562 C 168.84375 158.980469 166.925781 158.949219 165.011719 158.976562 C 164.925781 158.976562 164.851562 158.933594 164.820312 158.84375 Z M 168.335938 170.140625 C 168.226562 170.136719 168.144531 170.097656 168.105469 169.988281 C 168.03125 169.765625 167.941406 169.550781 167.875 169.328125 C 167.226562 167.089844 166.546875 164.859375 165.921875 162.617188 C 165.902344 162.535156 165.964844 162.457031 166.058594 162.453125 C 166.957031 162.433594 167.855469 162.449219 168.757812 162.445312 C 169.65625 162.453125 170.558594 162.425781 171.453125 162.457031 C 171.714844 162.476562 171.648438 163.050781 171.71875 163.257812 C 172.054688 165.445312 172.390625 167.632812 172.71875 169.820312 C 172.722656 169.921875 172.761719 170.09375 172.628906 170.121094 C 171.203125 170.179688 169.765625 170.128906 168.335938 170.140625 Z M 174.324219 181.550781 C 170.285156 180.632812 170.34375 177.285156 169.289062 173.988281 C 169.273438 173.90625 169.210938 173.769531 169.3125 173.726562 C 169.957031 173.660156 170.609375 173.71875 171.253906 173.699219 C 171.886719 173.703125 172.519531 173.691406 173.152344 173.710938 C 173.238281 173.714844 173.3125 173.777344 173.328125 173.859375 C 173.582031 175.128906 173.777344 176.414062 173.960938 177.695312 C 174.132812 178.847656 174.359375 179.988281 174.519531 181.140625 C 174.539062 181.316406 174.613281 181.644531 174.324219 181.550781 Z M 174.453125 158.628906 C 173.917969 154.90625 173.28125 151.195312 172.785156 147.46875 C 172.835938 147.28125 173.066406 147.359375 173.214844 147.34375 C 175.246094 147.34375 177.28125 147.347656 179.3125 147.347656 C 179.3125 147.34375 179.3125 147.34375 179.3125 147.339844 C 181.441406 147.351562 183.578125 147.316406 185.707031 147.355469 C 185.839844 147.367188 185.859375 147.519531 185.863281 147.628906 C 185.890625 148.042969 185.917969 148.460938 185.9375 148.875 C 186.097656 152.101562 186.210938 155.332031 186.339844 158.558594 C 186.320312 158.683594 186.390625 158.917969 186.230469 158.957031 C 182.371094 158.996094 178.5 158.984375 174.640625 158.945312 C 174.492188 158.925781 174.472656 158.75 174.453125 158.628906 Z M 176.230469 169.96875 C 175.984375 168.65625 175.8125 167.335938 175.605469 166.019531 C 175.453125 165.03125 175.292969 164.042969 175.15625 163.054688 C 175.0625 162.375 174.953125 162.4375 175.675781 162.4375 C 177.375 162.4375 179.074219 162.4375 180.773438 162.4375 C 180.773438 162.441406 180.773438 162.445312 180.773438 162.445312 C 182.625 162.457031 184.476562 162.421875 186.324219 162.464844 C 186.480469 162.492188 186.476562 162.664062 186.480469 162.789062 C 186.503906 163.238281 186.523438 163.6875 186.542969 164.136719 C 186.628906 166.019531 186.722656 167.902344 186.769531 169.785156 C 186.777344 169.925781 186.765625 170.128906 186.585938 170.128906 C 183.300781 170.152344 180.019531 170.132812 176.734375 170.140625 C 176.558594 170.128906 176.261719 170.210938 176.230469 169.96875 Z M 187.199219 181.632812 C 184.207031 181.699219 181.203125 181.644531 178.207031 181.660156 C 177.945312 181.621094 178.007812 181.265625 177.945312 181.070312 C 177.679688 179.394531 177.414062 177.71875 177.152344 176.039062 C 177.042969 175.347656 176.941406 174.65625 176.839844 173.964844 C 176.820312 173.875 176.828125 173.734375 176.941406 173.726562 C 178.585938 173.675781 180.238281 173.722656 181.886719 173.707031 C 181.886719 173.703125 181.886719 173.699219 181.886719 173.691406 C 183.386719 173.691406 184.886719 173.691406 186.382812 173.691406 C 187.007812 173.691406 186.945312 173.660156 186.976562 174.25 C 187 174.699219 187.015625 175.148438 187.039062 175.601562 C 187.105469 176.996094 187.195312 178.394531 187.238281 179.792969 C 187.199219 180.046875 187.441406 181.65625 187.199219 181.632812 Z M 200.898438 175.242188 C 200.820312 177.324219 200.679688 179.398438 200.613281 181.480469 C 200.613281 181.660156 200.40625 181.664062 200.265625 181.65625 C 197.449219 181.664062 194.636719 181.664062 191.820312 181.664062 C 191.574219 181.664062 191.324219 181.664062 191.070312 181.664062 C 190.71875 181.65625 190.714844 181.65625 190.699219 181.296875 C 190.671875 180.632812 190.644531 179.96875 190.617188 179.300781 C 190.542969 177.503906 190.441406 175.710938 190.425781 173.910156 C 190.421875 173.757812 190.476562 173.707031 190.632812 173.703125 C 192.316406 173.695312 193.996094 173.703125 195.679688 173.699219 C 195.679688 173.703125 195.679688 173.707031 195.679688 173.714844 C 197.378906 173.710938 199.078125 173.679688 200.773438 173.695312 C 200.882812 173.699219 200.949219 173.777344 200.945312 173.894531 C 200.929688 174.34375 200.914062 174.792969 200.898438 175.242188 Z M 201.605469 162.6875 C 201.496094 164.730469 201.421875 166.777344 201.28125 168.824219 C 201.261719 169.136719 201.253906 169.457031 201.242188 169.773438 C 201.25 170.027344 201.191406 170.15625 200.917969 170.136719 C 197.402344 170.132812 193.886719 170.15625 190.375 170.132812 C 190.292969 170.128906 190.222656 170.0625 190.21875 169.972656 C 190.078125 167.777344 190.042969 165.578125 189.957031 163.382812 C 189.949219 163.117188 189.949219 162.847656 189.945312 162.582031 C 189.945312 162.523438 190.015625 162.453125 190.074219 162.453125 C 191.972656 162.421875 193.871094 162.449219 195.769531 162.441406 C 197.652344 162.449219 199.535156 162.429688 201.414062 162.449219 C 201.550781 162.457031 201.617188 162.539062 201.605469 162.6875 Z M 202.390625 147.761719 C 202.371094 148.246094 202.367188 148.726562 202.351562 149.210938 C 202.21875 152.421875 202.066406 155.640625 201.835938 158.84375 C 201.769531 158.980469 201.617188 158.964844 201.492188 158.96875 C 198.09375 158.957031 194.691406 158.96875 191.292969 158.960938 C 190.910156 158.960938 190.527344 158.960938 190.144531 158.957031 C 190.011719 158.949219 189.796875 158.980469 189.761719 158.8125 C 189.6875 157.582031 189.6875 156.34375 189.605469 155.113281 C 189.503906 152.570312 189.355469 150.019531 189.339844 147.472656 C 189.339844 147.414062 189.410156 147.351562 189.472656 147.347656 C 191.605469 147.316406 193.738281 147.34375 195.871094 147.335938 C 197.902344 147.339844 199.9375 147.332031 201.96875 147.339844 C 202.382812 147.347656 202.40625 147.371094 202.390625 147.761719 Z M 214.722656 173.871094 C 214.289062 176.316406 213.863281 178.757812 213.433594 181.203125 C 213.390625 181.34375 213.394531 181.566406 213.238281 181.632812 C 210.324219 181.6875 207.402344 181.640625 204.488281 181.65625 C 204.015625 181.65625 204.011719 181.652344 204.027344 181.195312 C 204.09375 179.730469 204.175781 178.265625 204.246094 176.800781 C 204.316406 175.804688 204.339844 174.800781 204.4375 173.808594 C 204.453125 173.769531 204.503906 173.722656 204.542969 173.71875 C 206.222656 173.671875 207.910156 173.714844 209.589844 173.703125 C 209.589844 173.707031 209.589844 173.710938 209.589844 173.71875 C 211.273438 173.722656 212.957031 173.648438 214.636719 173.710938 C 214.691406 173.726562 214.738281 173.816406 214.722656 173.871094 Z M 216.738281 162.800781 C 216.457031 164.496094 216.136719 166.179688 215.835938 167.867188 C 215.695312 168.585938 215.605469 169.316406 215.429688 170.023438 C 215.414062 170.0625 215.363281 170.109375 215.324219 170.113281 C 213.574219 170.167969 211.824219 170.117188 210.074219 170.132812 C 210.074219 170.136719 210.074219 170.140625 210.074219 170.144531 C 208.34375 170.140625 206.609375 170.148438 204.878906 170.140625 C 204.738281 170.136719 204.675781 170.066406 204.675781 169.914062 C 204.726562 168.667969 204.800781 167.417969 204.859375 166.171875 C 204.917969 165.007812 204.972656 163.84375 205.035156 162.675781 C 205.042969 162.503906 205.101562 162.453125 205.289062 162.445312 C 209.082031 162.476562 212.890625 162.386719 216.679688 162.488281 C 216.78125 162.542969 216.742188 162.703125 216.738281 162.800781 Z M 224.125 173.902344 C 223.695312 175.421875 223.265625 176.941406 222.839844 178.460938 C 222.257812 180.597656 220.144531 181.824219 218 181.640625 C 218 181.644531 218 181.652344 218 181.65625 C 217.789062 181.621094 217.015625 181.75 216.949219 181.546875 C 217.222656 179.394531 217.683594 177.25 218.03125 175.105469 C 218.101562 174.695312 218.175781 174.285156 218.253906 173.878906 C 218.273438 173.769531 218.351562 173.703125 218.457031 173.695312 C 220.304688 173.695312 222.152344 173.648438 223.996094 173.691406 C 224.113281 173.699219 224.160156 173.777344 224.125 173.902344 Z M 227.371094 162.769531 C 226.683594 165.152344 226.015625 167.539062 225.339844 169.921875 C 225.289062 170.089844 225.234375 170.132812 225.054688 170.140625 C 223.140625 170.144531 221.226562 170.144531 219.3125 170.144531 C 219.210938 170.132812 219.046875 170.171875 219 170.054688 C 219.035156 169.460938 219.1875 168.871094 219.269531 168.28125 C 219.53125 166.789062 219.796875 165.300781 220.070312 163.8125 C 220.15625 163.558594 220.199219 162.5 220.445312 162.460938 C 221.589844 162.410156 222.742188 162.453125 223.890625 162.441406 C 223.890625 162.441406 223.890625 162.441406 223.890625 162.445312 C 224.96875 162.445312 226.054688 162.441406 227.132812 162.445312 C 227.386719 162.449219 227.449219 162.492188 227.371094 162.769531 Z M 231.707031 147.628906 C 230.691406 151.351562 229.597656 155.054688 228.542969 158.769531 C 228.503906 158.90625 228.425781 158.957031 228.285156 158.960938 C 225.890625 158.949219 223.492188 158.984375 221.09375 158.9375 C 221.058594 158.933594 221.007812 158.867188 221.015625 158.828125 C 221.445312 156.335938 221.902344 153.847656 222.371094 151.363281 C 222.601562 150.101562 222.828125 148.84375 223.058594 147.582031 C 223.089844 147.40625 223.15625 147.34375 223.320312 147.339844 C 224.6875 147.332031 226.050781 147.339844 227.414062 147.335938 C 227.414062 147.335938 227.414062 147.332031 227.414062 147.332031 C 228.78125 147.335938 230.148438 147.324219 231.511719 147.335938 C 231.71875 147.34375 231.761719 147.410156 231.707031 147.628906 Z M 231.707031 147.628906 " fill-opacity="1" fill-rule="nonzero"/></g><g clip-path="url(#073ee5b014)"><path fill="#ffffff" d="M 166.691406 202.671875 C 163.105469 201.574219 159.042969 203.539062 157.605469 206.992188 C 155.460938 211.660156 159.386719 217.367188 164.453125 217.246094 C 173.210938 217.320312 175.09375 205.25 166.691406 202.671875 Z M 165.230469 212.953125 C 160.566406 213.601562 159.945312 206.722656 164.773438 206.703125 C 168.515625 206.789062 168.902344 212.234375 165.230469 212.953125 Z M 165.230469 212.953125 " fill-opacity="1" fill-rule="nonzero"/></g><g clip-path="url(#cbbd5f7f6f)"><path fill="#ffffff" d="M 220.09375 202.816406 C 212.199219 205.851562 214.1875 217.164062 222.667969 217.238281 C 226.707031 217.332031 230.21875 213.835938 230.1875 209.792969 C 230.273438 204.722656 224.785156 201.035156 220.09375 202.816406 Z M 223.5625 212.898438 C 218.859375 213.9375 217.808594 206.867188 222.738281 206.703125 C 226.402344 206.671875 227.054688 211.921875 223.5625 212.898438 Z M 223.5625 212.898438 " fill-opacity="1" fill-rule="nonzero"/></g><g fill="#38b6ff" fill-opacity="0.4"><g transform="translate(93.56063, 281.184238)"><g><path d="M 15.375 0.671875 C 13.488281 0.671875 11.78125 0.367188 10.25 -0.234375 C 8.726562 -0.835938 7.4375 -1.660156 6.375 -2.703125 C 5.3125 -3.742188 4.492188 -4.953125 3.921875 -6.328125 C 3.347656 -7.710938 3.0625 -9.179688 3.0625 -10.734375 C 3.0625 -12.546875 3.425781 -14.269531 4.15625 -15.90625 C 4.882812 -17.550781 5.878906 -18.988281 7.140625 -20.21875 C 8.410156 -21.445312 9.894531 -22.421875 11.59375 -23.140625 C 13.300781 -23.859375 15.132812 -24.21875 17.09375 -24.21875 C 18.976562 -24.21875 20.679688 -23.914062 22.203125 -23.3125 C 23.722656 -22.707031 25.015625 -21.882812 26.078125 -20.84375 C 27.148438 -19.800781 27.972656 -18.585938 28.546875 -17.203125 C 29.117188 -15.828125 29.40625 -14.363281 29.40625 -12.8125 C 29.40625 -11 29.039062 -9.273438 28.3125 -7.640625 C 27.582031 -6.003906 26.582031 -4.566406 25.3125 -3.328125 C 24.039062 -2.097656 22.550781 -1.125 20.84375 -0.40625 C 19.144531 0.3125 17.320312 0.671875 15.375 0.671875 Z M 15.75 -5.046875 C 16.707031 -5.046875 17.613281 -5.222656 18.46875 -5.578125 C 19.320312 -5.941406 20.070312 -6.457031 20.71875 -7.125 C 21.375 -7.800781 21.890625 -8.609375 22.265625 -9.546875 C 22.648438 -10.492188 22.84375 -11.539062 22.84375 -12.6875 C 22.84375 -13.53125 22.695312 -14.3125 22.40625 -15.03125 C 22.113281 -15.75 21.703125 -16.363281 21.171875 -16.875 C 20.648438 -17.394531 20.007812 -17.796875 19.25 -18.078125 C 18.5 -18.359375 17.65625 -18.5 16.71875 -18.5 C 15.75 -18.5 14.835938 -18.316406 13.984375 -17.953125 C 13.140625 -17.597656 12.390625 -17.082031 11.734375 -16.40625 C 11.085938 -15.738281 10.570312 -14.929688 10.1875 -13.984375 C 9.8125 -13.046875 9.625 -12.003906 9.625 -10.859375 C 9.625 -10.015625 9.769531 -9.234375 10.0625 -8.515625 C 10.351562 -7.796875 10.757812 -7.175781 11.28125 -6.65625 C 11.8125 -6.144531 12.453125 -5.75 13.203125 -5.46875 C 13.953125 -5.1875 14.800781 -5.046875 15.75 -5.046875 Z M 15.75 -5.046875 "/></g></g></g><g fill="#38b6ff" fill-opacity="0.4"><g transform="translate(122.158497, 281.184238)"><g><path d="M 4.78125 -17.5 L 10.5 -17.5 L 10.125 -15.3125 L 10.390625 -15.3125 C 10.796875 -15.800781 11.257812 -16.25 11.78125 -16.65625 C 12.226562 -16.988281 12.765625 -17.296875 13.390625 -17.578125 C 14.015625 -17.859375 14.734375 -18 15.546875 -18 C 16.710938 -18 17.703125 -17.800781 18.515625 -17.40625 C 19.335938 -17.007812 19.988281 -16.457031 20.46875 -15.75 C 20.945312 -15.050781 21.257812 -14.222656 21.40625 -13.265625 C 21.550781 -12.316406 21.523438 -11.289062 21.328125 -10.1875 L 19.515625 0 L 13.796875 0 L 15.546875 -9.859375 C 15.703125 -10.847656 15.5625 -11.675781 15.125 -12.34375 C 14.6875 -13.019531 13.90625 -13.359375 12.78125 -13.359375 C 11.925781 -13.359375 11.140625 -13.03125 10.421875 -12.375 C 9.710938 -11.726562 9.265625 -10.851562 9.078125 -9.75 L 7.40625 0 L 1.6875 0 Z M 4.78125 -17.5 "/></g></g></g><g fill="#38b6ff" fill-opacity="0.4"><g transform="translate(143.18634, 281.184238)"><g><path d="M 5.8125 -23.546875 L 11.53125 -23.546875 L 8.203125 -4.546875 L 12.078125 -4.546875 L 11.265625 0 L 1.6875 0 Z M 5.8125 -23.546875 "/></g></g></g><g fill="#38b6ff" fill-opacity="0.4"><g transform="translate(154.793715, 281.184238)"><g><path d="M 4.78125 -17.5 L 10.5 -17.5 L 7.40625 0 L 1.6875 0 Z M 8.34375 -19.34375 C 7.40625 -19.34375 6.679688 -19.578125 6.171875 -20.046875 C 5.671875 -20.515625 5.421875 -21.117188 5.421875 -21.859375 C 5.421875 -22.804688 5.71875 -23.578125 6.3125 -24.171875 C 6.90625 -24.765625 7.660156 -25.0625 8.578125 -25.0625 C 9.515625 -25.0625 10.234375 -24.828125 10.734375 -24.359375 C 11.242188 -23.890625 11.5 -23.285156 11.5 -22.546875 C 11.5 -21.597656 11.203125 -20.828125 10.609375 -20.234375 C 10.015625 -19.640625 9.257812 -19.34375 8.34375 -19.34375 Z M 8.34375 -19.34375 "/></g></g></g><g fill="#38b6ff" fill-opacity="0.4"><g transform="translate(163.877748, 281.184238)"><g><path d="M 4.78125 -17.5 L 10.5 -17.5 L 10.125 -15.3125 L 10.390625 -15.3125 C 10.796875 -15.800781 11.257812 -16.25 11.78125 -16.65625 C 12.226562 -16.988281 12.765625 -17.296875 13.390625 -17.578125 C 14.015625 -17.859375 14.734375 -18 15.546875 -18 C 16.710938 -18 17.703125 -17.800781 18.515625 -17.40625 C 19.335938 -17.007812 19.988281 -16.457031 20.46875 -15.75 C 20.945312 -15.050781 21.257812 -14.222656 21.40625 -13.265625 C 21.550781 -12.316406 21.523438 -11.289062 21.328125 -10.1875 L 19.515625 0 L 13.796875 0 L 15.546875 -9.859375 C 15.703125 -10.847656 15.5625 -11.675781 15.125 -12.34375 C 14.6875 -13.019531 13.90625 -13.359375 12.78125 -13.359375 C 11.925781 -13.359375 11.140625 -13.03125 10.421875 -12.375 C 9.710938 -11.726562 9.265625 -10.851562 9.078125 -9.75 L 7.40625 0 L 1.6875 0 Z M 4.78125 -17.5 "/></g></g></g><g fill="#38b6ff" fill-opacity="0.4"><g transform="translate(184.905591, 281.184238)"><g><path d="M 11.5 0.5 C 10.175781 0.5 8.953125 0.296875 7.828125 -0.109375 C 6.710938 -0.523438 5.75 -1.113281 4.9375 -1.875 C 4.132812 -2.644531 3.503906 -3.546875 3.046875 -4.578125 C 2.585938 -5.609375 2.359375 -6.75 2.359375 -8 C 2.359375 -9.375 2.632812 -10.664062 3.1875 -11.875 C 3.75 -13.082031 4.5 -14.140625 5.4375 -15.046875 C 6.382812 -15.960938 7.476562 -16.679688 8.71875 -17.203125 C 9.96875 -17.734375 11.289062 -18 12.6875 -18 C 14.03125 -18 15.25 -17.773438 16.34375 -17.328125 C 17.445312 -16.878906 18.382812 -16.265625 19.15625 -15.484375 C 19.925781 -14.710938 20.519531 -13.8125 20.9375 -12.78125 C 21.351562 -11.75 21.5625 -10.660156 21.5625 -9.515625 C 21.5625 -9.273438 21.546875 -9 21.515625 -8.6875 C 21.484375 -8.382812 21.441406 -8.066406 21.390625 -7.734375 L 8.109375 -7.734375 C 8.148438 -6.546875 8.46875 -5.628906 9.0625 -4.984375 C 9.65625 -4.347656 10.503906 -4.03125 11.609375 -4.03125 C 12.210938 -4.03125 12.722656 -4.117188 13.140625 -4.296875 C 13.554688 -4.484375 13.894531 -4.695312 14.15625 -4.9375 C 14.476562 -5.207031 14.738281 -5.523438 14.9375 -5.890625 L 21.09375 -5.890625 C 20.601562 -4.679688 19.921875 -3.613281 19.046875 -2.6875 C 18.660156 -2.28125 18.222656 -1.882812 17.734375 -1.5 C 17.253906 -1.125 16.707031 -0.785156 16.09375 -0.484375 C 15.476562 -0.179688 14.789062 0.0546875 14.03125 0.234375 C 13.269531 0.410156 12.425781 0.5 11.5 0.5 Z M 15.75 -10.59375 C 15.71875 -10.957031 15.617188 -11.3125 15.453125 -11.65625 C 15.285156 -12 15.0625 -12.304688 14.78125 -12.578125 C 14.5 -12.847656 14.171875 -13.0625 13.796875 -13.21875 C 13.429688 -13.375 13.035156 -13.453125 12.609375 -13.453125 C 11.671875 -13.453125 10.859375 -13.210938 10.171875 -12.734375 C 9.492188 -12.253906 8.984375 -11.539062 8.640625 -10.59375 Z M 15.75 -10.59375 "/></g></g></g><g fill="#38b6ff" fill-opacity="1"><g transform="translate(93.56063, 281.184238)"><g><path d="M 15.375 0.671875 C 13.488281 0.671875 11.78125 0.367188 10.25 -0.234375 C 8.726562 -0.835938 7.4375 -1.660156 6.375 -2.703125 C 5.3125 -3.742188 4.492188 -4.953125 3.921875 -6.328125 C 3.347656 -7.710938 3.0625 -9.179688 3.0625 -10.734375 C 3.0625 -12.546875 3.425781 -14.269531 4.15625 -15.90625 C 4.882812 -17.550781 5.878906 -18.988281 7.140625 -20.21875 C 8.410156 -21.445312 9.894531 -22.421875 11.59375 -23.140625 C 13.300781 -23.859375 15.132812 -24.21875 17.09375 -24.21875 C 18.976562 -24.21875 20.679688 -23.914062 22.203125 -23.3125 C 23.722656 -22.707031 25.015625 -21.882812 26.078125 -20.84375 C 27.148438 -19.800781 27.972656 -18.585938 28.546875 -17.203125 C 29.117188 -15.828125 29.40625 -14.363281 29.40625 -12.8125 C 29.40625 -11 29.039062 -9.273438 28.3125 -7.640625 C 27.582031 -6.003906 26.582031 -4.566406 25.3125 -3.328125 C 24.039062 -2.097656 22.550781 -1.125 20.84375 -0.40625 C 19.144531 0.3125 17.320312 0.671875 15.375 0.671875 Z M 15.75 -5.046875 C 16.707031 -5.046875 17.613281 -5.222656 18.46875 -5.578125 C 19.320312 -5.941406 20.070312 -6.457031 20.71875 -7.125 C 21.375 -7.800781 21.890625 -8.609375 22.265625 -9.546875 C 22.648438 -10.492188 22.84375 -11.539062 22.84375 -12.6875 C 22.84375 -13.53125 22.695312 -14.3125 22.40625 -15.03125 C 22.113281 -15.75 21.703125 -16.363281 21.171875 -16.875 C 20.648438 -17.394531 20.007812 -17.796875 19.25 -18.078125 C 18.5 -18.359375 17.65625 -18.5 16.71875 -18.5 C 15.75 -18.5 14.835938 -18.316406 13.984375 -17.953125 C 13.140625 -17.597656 12.390625 -17.082031 11.734375 -16.40625 C 11.085938 -15.738281 10.570312 -14.929688 10.1875 -13.984375 C 9.8125 -13.046875 9.625 -12.003906 9.625 -10.859375 C 9.625 -10.015625 9.769531 -9.234375 10.0625 -8.515625 C 10.351562 -7.796875 10.757812 -7.175781 11.28125 -6.65625 C 11.8125 -6.144531 12.453125 -5.75 13.203125 -5.46875 C 13.953125 -5.1875 14.800781 -5.046875 15.75 -5.046875 Z M 15.75 -5.046875 "/></g></g></g><g fill="#38b6ff" fill-opacity="1"><g transform="translate(122.158497, 281.184238)"><g><path d="M 4.78125 -17.5 L 10.5 -17.5 L 10.125 -15.3125 L 10.390625 -15.3125 C 10.796875 -15.800781 11.257812 -16.25 11.78125 -16.65625 C 12.226562 -16.988281 12.765625 -17.296875 13.390625 -17.578125 C 14.015625 -17.859375 14.734375 -18 15.546875 -18 C 16.710938 -18 17.703125 -17.800781 18.515625 -17.40625 C 19.335938 -17.007812 19.988281 -16.457031 20.46875 -15.75 C 20.945312 -15.050781 21.257812 -14.222656 21.40625 -13.265625 C 21.550781 -12.316406 21.523438 -11.289062 21.328125 -10.1875 L 19.515625 0 L 13.796875 0 L 15.546875 -9.859375 C 15.703125 -10.847656 15.5625 -11.675781 15.125 -12.34375 C 14.6875 -13.019531 13.90625 -13.359375 12.78125 -13.359375 C 11.925781 -13.359375 11.140625 -13.03125 10.421875 -12.375 C 9.710938 -11.726562 9.265625 -10.851562 9.078125 -9.75 L 7.40625 0 L 1.6875 0 Z M 4.78125 -17.5 "/></g></g></g><g fill="#38b6ff" fill-opacity="1"><g transform="translate(143.18634, 281.184238)"><g><path d="M 5.8125 -23.546875 L 11.53125 -23.546875 L 8.203125 -4.546875 L 12.078125 -4.546875 L 11.265625 0 L 1.6875 0 Z M 5.8125 -23.546875 "/></g></g></g><g fill="#38b6ff" fill-opacity="1"><g transform="translate(154.793715, 281.184238)"><g><path d="M 4.78125 -17.5 L 10.5 -17.5 L 7.40625 0 L 1.6875 0 Z M 8.34375 -19.34375 C 7.40625 -19.34375 6.679688 -19.578125 6.171875 -20.046875 C 5.671875 -20.515625 5.421875 -21.117188 5.421875 -21.859375 C 5.421875 -22.804688 5.71875 -23.578125 6.3125 -24.171875 C 6.90625 -24.765625 7.660156 -25.0625 8.578125 -25.0625 C 9.515625 -25.0625 10.234375 -24.828125 10.734375 -24.359375 C 11.242188 -23.890625 11.5 -23.285156 11.5 -22.546875 C 11.5 -21.597656 11.203125 -20.828125 10.609375 -20.234375 C 10.015625 -19.640625 9.257812 -19.34375 8.34375 -19.34375 Z M 8.34375 -19.34375 "/></g></g></g><g fill="#38b6ff" fill-opacity="1"><g transform="translate(163.877748, 281.184238)"><g><path d="M 4.78125 -17.5 L 10.5 -17.5 L 10.125 -15.3125 L 10.390625 -15.3125 C 10.796875 -15.800781 11.257812 -16.25 11.78125 -16.65625 C 12.226562 -16.988281 12.765625 -17.296875 13.390625 -17.578125 C 14.015625 -17.859375 14.734375 -18 15.546875 -18 C 16.710938 -18 17.703125 -17.800781 18.515625 -17.40625 C 19.335938 -17.007812 19.988281 -16.457031 20.46875 -15.75 C 20.945312 -15.050781 21.257812 -14.222656 21.40625 -13.265625 C 21.550781 -12.316406 21.523438 -11.289062 21.328125 -10.1875 L 19.515625 0 L 13.796875 0 L 15.546875 -9.859375 C 15.703125 -10.847656 15.5625 -11.675781 15.125 -12.34375 C 14.6875 -13.019531 13.90625 -13.359375 12.78125 -13.359375 C 11.925781 -13.359375 11.140625 -13.03125 10.421875 -12.375 C 9.710938 -11.726562 9.265625 -10.851562 9.078125 -9.75 L 7.40625 0 L 1.6875 0 Z M 4.78125 -17.5 "/></g></g></g><g fill="#38b6ff" fill-opacity="1"><g transform="translate(184.905591, 281.184238)"><g><path d="M 11.5 0.5 C 10.175781 0.5 8.953125 0.296875 7.828125 -0.109375 C 6.710938 -0.523438 5.75 -1.113281 4.9375 -1.875 C 4.132812 -2.644531 3.503906 -3.546875 3.046875 -4.578125 C 2.585938 -5.609375 2.359375 -6.75 2.359375 -8 C 2.359375 -9.375 2.632812 -10.664062 3.1875 -11.875 C 3.75 -13.082031 4.5 -14.140625 5.4375 -15.046875 C 6.382812 -15.960938 7.476562 -16.679688 8.71875 -17.203125 C 9.96875 -17.734375 11.289062 -18 12.6875 -18 C 14.03125 -18 15.25 -17.773438 16.34375 -17.328125 C 17.445312 -16.878906 18.382812 -16.265625 19.15625 -15.484375 C 19.925781 -14.710938 20.519531 -13.8125 20.9375 -12.78125 C 21.351562 -11.75 21.5625 -10.660156 21.5625 -9.515625 C 21.5625 -9.273438 21.546875 -9 21.515625 -8.6875 C 21.484375 -8.382812 21.441406 -8.066406 21.390625 -7.734375 L 8.109375 -7.734375 C 8.148438 -6.546875 8.46875 -5.628906 9.0625 -4.984375 C 9.65625 -4.347656 10.503906 -4.03125 11.609375 -4.03125 C 12.210938 -4.03125 12.722656 -4.117188 13.140625 -4.296875 C 13.554688 -4.484375 13.894531 -4.695312 14.15625 -4.9375 C 14.476562 -5.207031 14.738281 -5.523438 14.9375 -5.890625 L 21.09375 -5.890625 C 20.601562 -4.679688 19.921875 -3.613281 19.046875 -2.6875 C 18.660156 -2.28125 18.222656 -1.882812 17.734375 -1.5 C 17.253906 -1.125 16.707031 -0.785156 16.09375 -0.484375 C 15.476562 -0.179688 14.789062 0.0546875 14.03125 0.234375 C 13.269531 0.410156 12.425781 0.5 11.5 0.5 Z M 15.75 -10.59375 C 15.71875 -10.957031 15.617188 -11.3125 15.453125 -11.65625 C 15.285156 -12 15.0625 -12.304688 14.78125 -12.578125 C 14.5 -12.847656 14.171875 -13.0625 13.796875 -13.21875 C 13.429688 -13.375 13.035156 -13.453125 12.609375 -13.453125 C 11.671875 -13.453125 10.859375 -13.210938 10.171875 -12.734375 C 9.492188 -12.253906 8.984375 -11.539062 8.640625 -10.59375 Z M 15.75 -10.59375 "/></g></g></g><g fill="#000000" fill-opacity="1"><g transform="translate(202.736593, 281.184238)"><g/></g></g><g fill="#000000" fill-opacity="1"><g transform="translate(212.158467, 281.184238)"><g><path d="M 11.09375 0.671875 C 10.019531 0.671875 9.054688 0.5625 8.203125 0.34375 C 7.359375 0.132812 6.609375 -0.140625 5.953125 -0.484375 C 5.304688 -0.835938 4.734375 -1.234375 4.234375 -1.671875 C 3.742188 -2.109375 3.332031 -2.5625 3 -3.03125 C 2.1875 -4.101562 1.632812 -5.335938 1.34375 -6.734375 L 4.375 -6.734375 C 4.59375 -5.878906 4.992188 -5.113281 5.578125 -4.4375 C 6.078125 -3.851562 6.765625 -3.332031 7.640625 -2.875 C 8.515625 -2.414062 9.664062 -2.1875 11.09375 -2.1875 C 12.101562 -2.1875 12.976562 -2.289062 13.71875 -2.5 C 14.457031 -2.71875 15.066406 -3.007812 15.546875 -3.375 C 16.035156 -3.75 16.394531 -4.179688 16.625 -4.671875 C 16.863281 -5.171875 16.984375 -5.6875 16.984375 -6.21875 C 16.984375 -6.9375 16.773438 -7.53125 16.359375 -8 C 15.953125 -8.476562 15.398438 -8.882812 14.703125 -9.21875 C 14.003906 -9.550781 13.21875 -9.84375 12.34375 -10.09375 C 11.46875 -10.34375 10.578125 -10.59375 9.671875 -10.84375 C 8.765625 -11.101562 7.875 -11.398438 7 -11.734375 C 6.125 -12.078125 5.335938 -12.492188 4.640625 -12.984375 C 3.941406 -13.472656 3.382812 -14.082031 2.96875 -14.8125 C 2.5625 -15.539062 2.359375 -16.4375 2.359375 -17.5 C 2.359375 -18.375 2.550781 -19.21875 2.9375 -20.03125 C 3.332031 -20.851562 3.890625 -21.570312 4.609375 -22.1875 C 5.328125 -22.800781 6.207031 -23.289062 7.25 -23.65625 C 8.289062 -24.03125 9.460938 -24.21875 10.765625 -24.21875 C 11.753906 -24.21875 12.644531 -24.125 13.4375 -23.9375 C 14.238281 -23.75 14.941406 -23.5 15.546875 -23.1875 C 16.148438 -22.882812 16.679688 -22.53125 17.140625 -22.125 C 17.597656 -21.726562 17.984375 -21.328125 18.296875 -20.921875 C 19.035156 -19.960938 19.550781 -18.875 19.84375 -17.65625 L 16.8125 -17.65625 C 16.613281 -18.332031 16.257812 -18.953125 15.75 -19.515625 C 15.300781 -19.960938 14.679688 -20.378906 13.890625 -20.765625 C 13.109375 -21.160156 12.066406 -21.359375 10.765625 -21.359375 C 9.890625 -21.359375 9.113281 -21.25 8.4375 -21.03125 C 7.769531 -20.820312 7.207031 -20.535156 6.75 -20.171875 C 6.289062 -19.816406 5.945312 -19.40625 5.71875 -18.9375 C 5.488281 -18.46875 5.375 -17.988281 5.375 -17.5 C 5.375 -16.570312 5.734375 -15.84375 6.453125 -15.3125 C 7.171875 -14.789062 8.070312 -14.34375 9.15625 -13.96875 C 10.25 -13.601562 11.425781 -13.257812 12.6875 -12.9375 C 13.957031 -12.613281 15.132812 -12.1875 16.21875 -11.65625 C 17.3125 -11.125 18.21875 -10.429688 18.9375 -9.578125 C 19.65625 -8.734375 20.015625 -7.613281 20.015625 -6.21875 C 20.015625 -5.300781 19.816406 -4.421875 19.421875 -3.578125 C 19.035156 -2.742188 18.457031 -2.007812 17.6875 -1.375 C 16.925781 -0.75 15.992188 -0.253906 14.890625 0.109375 C 13.796875 0.484375 12.53125 0.671875 11.09375 0.671875 Z M 11.09375 0.671875 "/></g></g></g><g fill="#000000" fill-opacity="1"><g transform="translate(233.690982, 281.184238)"><g><path d="M 2.359375 -23.546875 L 5.046875 -23.546875 L 5.046875 -14.296875 L 5.078125 -14.296875 C 5.410156 -14.835938 5.847656 -15.304688 6.390625 -15.703125 C 6.835938 -16.066406 7.425781 -16.398438 8.15625 -16.703125 C 8.882812 -17.003906 9.753906 -17.15625 10.765625 -17.15625 C 11.773438 -17.15625 12.691406 -16.992188 13.515625 -16.671875 C 14.347656 -16.347656 15.054688 -15.867188 15.640625 -15.234375 C 16.222656 -14.609375 16.675781 -13.851562 17 -12.96875 C 17.332031 -12.082031 17.5 -11.066406 17.5 -9.921875 L 17.5 0 L 14.796875 0 L 14.796875 -9.75 C 14.796875 -11.4375 14.375 -12.671875 13.53125 -13.453125 C 12.695312 -14.242188 11.609375 -14.640625 10.265625 -14.640625 C 9.492188 -14.640625 8.789062 -14.507812 8.15625 -14.25 C 7.519531 -13.988281 6.96875 -13.609375 6.5 -13.109375 C 6.039062 -12.617188 5.679688 -12.03125 5.421875 -11.34375 C 5.171875 -10.664062 5.046875 -9.910156 5.046875 -9.078125 L 5.046875 0 L 2.359375 0 Z M 2.359375 -23.546875 "/></g></g></g><g fill="#000000" fill-opacity="1"><g transform="translate(253.204828, 281.184238)"><g><path d="M 10.09375 0.34375 C 8.832031 0.34375 7.664062 0.125 6.59375 -0.3125 C 5.519531 -0.75 4.59375 -1.351562 3.8125 -2.125 C 3.039062 -2.90625 2.4375 -3.832031 2 -4.90625 C 1.5625 -5.988281 1.34375 -7.15625 1.34375 -8.40625 C 1.34375 -9.664062 1.5625 -10.832031 2 -11.90625 C 2.4375 -12.988281 3.039062 -13.914062 3.8125 -14.6875 C 4.59375 -15.457031 5.519531 -16.0625 6.59375 -16.5 C 7.664062 -16.9375 8.832031 -17.15625 10.09375 -17.15625 C 11.34375 -17.15625 12.503906 -16.9375 13.578125 -16.5 C 14.660156 -16.0625 15.585938 -15.457031 16.359375 -14.6875 C 17.140625 -13.914062 17.75 -12.988281 18.1875 -11.90625 C 18.625 -10.832031 18.84375 -9.664062 18.84375 -8.40625 C 18.84375 -7.15625 18.625 -5.988281 18.1875 -4.90625 C 17.75 -3.832031 17.140625 -2.90625 16.359375 -2.125 C 15.585938 -1.351562 14.660156 -0.75 13.578125 -0.3125 C 12.503906 0.125 11.34375 0.34375 10.09375 0.34375 Z M 10.09375 -2.1875 C 10.96875 -2.1875 11.773438 -2.335938 12.515625 -2.640625 C 13.253906 -2.941406 13.890625 -3.367188 14.421875 -3.921875 C 14.960938 -4.472656 15.382812 -5.128906 15.6875 -5.890625 C 15.988281 -6.648438 16.140625 -7.488281 16.140625 -8.40625 C 16.140625 -9.332031 15.988281 -10.175781 15.6875 -10.9375 C 15.382812 -11.695312 14.960938 -12.347656 14.421875 -12.890625 C 13.890625 -13.441406 13.253906 -13.867188 12.515625 -14.171875 C 11.773438 -14.484375 10.96875 -14.640625 10.09375 -14.640625 C 9.21875 -14.640625 8.410156 -14.484375 7.671875 -14.171875 C 6.929688 -13.867188 6.289062 -13.441406 5.75 -12.890625 C 5.207031 -12.347656 4.785156 -11.695312 4.484375 -10.9375 C 4.179688 -10.175781 4.03125 -9.332031 4.03125 -8.40625 C 4.03125 -7.488281 4.179688 -6.648438 4.484375 -5.890625 C 4.785156 -5.128906 5.207031 -4.472656 5.75 -3.921875 C 6.289062 -3.367188 6.929688 -2.941406 7.671875 -2.640625 C 8.410156 -2.335938 9.21875 -2.1875 10.09375 -2.1875 Z M 10.09375 -2.1875 "/></g></g></g><g fill="#000000" fill-opacity="1"><g transform="translate(273.391564, 281.184238)"><g><path d="M 2.359375 -16.8125 L 5.046875 -16.8125 L 5.046875 -14.125 L 5.078125 -14.125 C 5.078125 -14.125 5.179688 -14.285156 5.390625 -14.609375 C 5.609375 -14.941406 5.957031 -15.289062 6.4375 -15.65625 C 6.925781 -16.03125 7.550781 -16.375 8.3125 -16.6875 C 9.070312 -17 10 -17.15625 11.09375 -17.15625 C 12.195312 -17.15625 13.234375 -16.9375 14.203125 -16.5 C 15.179688 -16.0625 16.039062 -15.457031 16.78125 -14.6875 C 17.519531 -13.914062 18.101562 -12.988281 18.53125 -11.90625 C 18.957031 -10.832031 19.171875 -9.664062 19.171875 -8.40625 C 19.171875 -7.15625 18.957031 -5.988281 18.53125 -4.90625 C 18.101562 -3.832031 17.519531 -2.90625 16.78125 -2.125 C 16.039062 -1.351562 15.179688 -0.75 14.203125 -0.3125 C 13.234375 0.125 12.195312 0.34375 11.09375 0.34375 C 10 0.34375 9.070312 0.1875 8.3125 -0.125 C 7.550781 -0.445312 6.925781 -0.789062 6.4375 -1.15625 C 5.957031 -1.53125 5.609375 -1.878906 5.390625 -2.203125 C 5.179688 -2.523438 5.078125 -2.6875 5.078125 -2.6875 L 5.046875 -2.6875 L 5.046875 6.390625 L 2.359375 6.390625 Z M 10.765625 -2.1875 C 11.566406 -2.1875 12.316406 -2.335938 13.015625 -2.640625 C 13.710938 -2.941406 14.316406 -3.367188 14.828125 -3.921875 C 15.347656 -4.472656 15.753906 -5.128906 16.046875 -5.890625 C 16.335938 -6.648438 16.484375 -7.488281 16.484375 -8.40625 C 16.484375 -9.332031 16.335938 -10.175781 16.046875 -10.9375 C 15.753906 -11.695312 15.347656 -12.347656 14.828125 -12.890625 C 14.316406 -13.441406 13.710938 -13.867188 13.015625 -14.171875 C 12.316406 -14.484375 11.566406 -14.640625 10.765625 -14.640625 C 9.953125 -14.640625 9.195312 -14.484375 8.5 -14.171875 C 7.8125 -13.867188 7.207031 -13.441406 6.6875 -12.890625 C 6.175781 -12.347656 5.773438 -11.695312 5.484375 -10.9375 C 5.191406 -10.175781 5.046875 -9.332031 5.046875 -8.40625 C 5.046875 -7.488281 5.191406 -6.648438 5.484375 -5.890625 C 5.773438 -5.128906 6.175781 -4.472656 6.6875 -3.921875 C 7.207031 -3.367188 7.8125 -2.941406 8.5 -2.640625 C 9.195312 -2.335938 9.953125 -2.1875 10.765625 -2.1875 Z M 10.765625 -2.1875 "/></g></g></g></svg>