<svg xmlns="http://www.w3.org/2000/svg" xmlns:xlink="http://www.w3.org/1999/xlink" width="500" zoomAndPan="magnify" viewBox="0 0 375 374.999991" height="500" preserveAspectRatio="xMidYMid meet" version="1.0"><defs><g/><clipPath id="a097e6b4cc"><path d="M 93 137 L 177 137 L 177 247 L 93 247 Z M 93 137 " clip-rule="nonzero"/></clipPath><clipPath id="54b1fb0006"><path d="M 62.84375 169.457031 L 133.796875 121.746094 L 190.292969 205.769531 L 119.34375 253.476562 Z M 62.84375 169.457031 " clip-rule="nonzero"/></clipPath><clipPath id="d2eae94f0c"><path d="M 62.84375 169.457031 L 133.796875 121.746094 L 190.292969 205.769531 L 119.34375 253.476562 Z M 62.84375 169.457031 " clip-rule="nonzero"/></clipPath><clipPath id="62afda8be5"><path d="M 62.84375 169.457031 L 133.796875 121.746094 L 190.292969 205.769531 L 119.34375 253.476562 Z M 62.84375 169.457031 " clip-rule="nonzero"/></clipPath><clipPath id="09a2c81cf0"><path d="M 119 181 L 139 181 L 139 202 L 119 202 Z M 119 181 " clip-rule="nonzero"/></clipPath><clipPath id="d39f027f6a"><path d="M 62.84375 169.457031 L 133.796875 121.746094 L 190.292969 205.769531 L 119.34375 253.476562 Z M 62.84375 169.457031 " clip-rule="nonzero"/></clipPath><clipPath id="baee7dd4f5"><path d="M 62.84375 169.457031 L 133.796875 121.746094 L 190.292969 205.769531 L 119.34375 253.476562 Z M 62.84375 169.457031 " clip-rule="nonzero"/></clipPath><clipPath id="50d023c627"><path d="M 62.84375 169.457031 L 133.796875 121.746094 L 190.292969 205.769531 L 119.34375 253.476562 Z M 62.84375 169.457031 " clip-rule="nonzero"/></clipPath><clipPath id="956b10b030"><path d="M 128 204 L 132 204 L 132 209 L 128 209 Z M 128 204 " clip-rule="nonzero"/></clipPath><clipPath id="7f47e5a9a9"><path d="M 62.84375 169.457031 L 133.796875 121.746094 L 190.292969 205.769531 L 119.34375 253.476562 Z M 62.84375 169.457031 " clip-rule="nonzero"/></clipPath><clipPath id="1b4f5e847f"><path d="M 62.84375 169.457031 L 133.796875 121.746094 L 190.292969 205.769531 L 119.34375 253.476562 Z M 62.84375 169.457031 " clip-rule="nonzero"/></clipPath><clipPath id="574000407f"><path d="M 62.84375 169.457031 L 133.796875 121.746094 L 190.292969 205.769531 L 119.34375 253.476562 Z M 62.84375 169.457031 " clip-rule="nonzero"/></clipPath><clipPath id="ac3b2fb7f0"><path d="M 142 185 L 146 185 L 146 190 L 142 190 Z M 142 185 " clip-rule="nonzero"/></clipPath><clipPath id="436578d938"><path d="M 62.84375 169.457031 L 133.796875 121.746094 L 190.292969 205.769531 L 119.34375 253.476562 Z M 62.84375 169.457031 " clip-rule="nonzero"/></clipPath><clipPath id="bd68e03f61"><path d="M 62.84375 169.457031 L 133.796875 121.746094 L 190.292969 205.769531 L 119.34375 253.476562 Z M 62.84375 169.457031 " clip-rule="nonzero"/></clipPath><clipPath id="14e9795b01"><path d="M 62.84375 169.457031 L 133.796875 121.746094 L 190.292969 205.769531 L 119.34375 253.476562 Z M 62.84375 169.457031 " clip-rule="nonzero"/></clipPath></defs><rect x="-37.5" width="450" fill="#ffffff" y="-37.499999" height="449.999989" fill-opacity="1"/><rect x="-37.5" width="450" fill="#ffffff" y="-37.499999" height="449.999989" fill-opacity="1"/><g clip-path="url(#a097e6b4cc)"><g clip-path="url(#54b1fb0006)"><g clip-path="url(#d2eae94f0c)"><g clip-path="url(#62afda8be5)"><path fill="#eb690a" d="M 121.121094 214.429688 C 119.679688 213.082031 119.46875 210.859375 120.65625 209.289062 L 124.40625 204.238281 L 121.84375 202.332031 C 115.847656 197.867188 114.585938 189.351562 119.035156 183.359375 C 123.488281 177.367188 131.996094 176.121094 137.988281 180.589844 L 140.554688 182.492188 L 144.308594 177.441406 C 145.484375 175.855469 147.667969 175.417969 149.359375 176.410156 L 176.535156 192.222656 L 153.671875 151.546875 C 152.339844 149.1875 149.457031 148.199219 146.976562 149.238281 L 139.058594 152.574219 L 137.351562 148.542969 C 133.363281 139.101562 122.472656 134.648438 113.03125 138.605469 C 103.601562 142.582031 99.175781 153.472656 103.148438 162.929688 L 104.851562 166.957031 L 96.933594 170.292969 C 94.4375 171.339844 93.132812 174.089844 93.898438 176.6875 L 113.304688 242.65625 C 114.226562 245.804688 117.695312 247.453125 120.726562 246.1875 L 144.386719 236.246094 Z M 142.148438 159.882812 C 142.65625 161.085938 142.09375 162.472656 140.890625 162.976562 C 139.6875 163.480469 138.300781 162.914062 137.792969 161.710938 C 137.289062 160.503906 137.851562 159.117188 139.054688 158.613281 C 140.242188 158.121094 141.644531 158.675781 142.148438 159.882812 Z M 107.546875 161.09375 C 104.59375 154.066406 107.878906 145.957031 114.902344 142.988281 C 121.925781 140.023438 130.03125 143.355469 133.007812 150.386719 L 134.714844 154.417969 L 109.25 165.121094 Z M 109.222656 171.160156 C 110.425781 170.65625 111.808594 171.222656 112.316406 172.425781 C 112.824219 173.632812 112.257812 175.015625 111.054688 175.523438 C 109.851562 176.027344 108.46875 175.460938 107.960938 174.253906 C 107.4375 173.0625 108.003906 171.675781 109.222656 171.160156 Z M 109.222656 171.160156 " fill-opacity="1" fill-rule="nonzero"/></g></g></g></g><g clip-path="url(#09a2c81cf0)"><g clip-path="url(#d39f027f6a)"><g clip-path="url(#baee7dd4f5)"><g clip-path="url(#50d023c627)"><path fill="#eb690a" d="M 135.925781 183.359375 C 131.472656 180.03125 125.125 180.949219 121.808594 185.429688 C 118.492188 189.882812 119.421875 196.234375 123.90625 199.566406 L 126.472656 201.46875 L 138.503906 185.277344 Z M 135.925781 183.359375 " fill-opacity="1" fill-rule="nonzero"/></g></g></g></g><g clip-path="url(#956b10b030)"><g clip-path="url(#7f47e5a9a9)"><g clip-path="url(#1b4f5e847f)"><g clip-path="url(#574000407f)"><path fill="#eb690a" d="M 128.691406 205.292969 C 128.125 206.046875 128.273438 207.140625 129.058594 207.714844 C 129.8125 208.28125 130.90625 208.132812 131.476562 207.351562 C 132.042969 206.59375 131.894531 205.503906 131.109375 204.929688 C 130.355469 204.359375 129.261719 204.507812 128.691406 205.292969 Z M 128.691406 205.292969 " fill-opacity="1" fill-rule="nonzero"/></g></g></g></g><g clip-path="url(#ac3b2fb7f0)"><g clip-path="url(#436578d938)"><g clip-path="url(#bd68e03f61)"><g clip-path="url(#14e9795b01)"><path fill="#eb690a" d="M 145.5625 188.375 C 146.128906 187.617188 145.976562 186.527344 145.195312 185.953125 C 144.4375 185.382812 143.347656 185.53125 142.773438 186.316406 C 142.203125 187.097656 142.359375 188.164062 143.140625 188.738281 C 143.914062 189.296875 145.007812 189.144531 145.5625 188.375 Z M 145.5625 188.375 " fill-opacity="1" fill-rule="nonzero"/></g></g></g></g><g fill="#000000" fill-opacity="1"><g transform="translate(138.655628, 215.960196)"><g><path d="M 11.703125 -4.671875 C 11.703125 -3.710938 11.457031 -2.863281 10.96875 -2.125 C 10.488281 -1.382812 9.789062 -0.8125 8.875 -0.40625 C 7.96875 0 6.90625 0.203125 5.6875 0.203125 C 4.664062 0.203125 3.804688 0.132812 3.109375 0 C 2.410156 -0.144531 1.691406 -0.394531 0.953125 -0.75 L 0.953125 -4.453125 C 1.734375 -4.046875 2.550781 -3.726562 3.40625 -3.5 C 4.269531 -3.269531 5.054688 -3.15625 5.765625 -3.15625 C 6.378906 -3.15625 6.828125 -3.257812 7.109375 -3.46875 C 7.398438 -3.6875 7.546875 -3.96875 7.546875 -4.3125 C 7.546875 -4.519531 7.488281 -4.703125 7.375 -4.859375 C 7.257812 -5.015625 7.070312 -5.171875 6.8125 -5.328125 C 6.5625 -5.492188 5.882812 -5.828125 4.78125 -6.328125 C 3.78125 -6.773438 3.03125 -7.210938 2.53125 -7.640625 C 2.03125 -8.066406 1.65625 -8.554688 1.40625 -9.109375 C 1.164062 -9.671875 1.046875 -10.328125 1.046875 -11.078125 C 1.046875 -12.492188 1.5625 -13.597656 2.59375 -14.390625 C 3.625 -15.179688 5.039062 -15.578125 6.84375 -15.578125 C 8.425781 -15.578125 10.046875 -15.210938 11.703125 -14.484375 L 10.4375 -11.265625 C 9 -11.929688 7.757812 -12.265625 6.71875 -12.265625 C 6.175781 -12.265625 5.78125 -12.164062 5.53125 -11.96875 C 5.289062 -11.78125 5.171875 -11.546875 5.171875 -11.265625 C 5.171875 -10.972656 5.328125 -10.707031 5.640625 -10.46875 C 5.953125 -10.226562 6.796875 -9.789062 8.171875 -9.15625 C 9.492188 -8.5625 10.410156 -7.921875 10.921875 -7.234375 C 11.441406 -6.554688 11.703125 -5.703125 11.703125 -4.671875 Z M 11.703125 -4.671875 "/></g></g></g><g fill="#000000" fill-opacity="1"><g transform="translate(151.07576, 215.960196)"><g><path d="M 14.828125 0 L 10.65625 0 L 10.65625 -6.265625 L 5.828125 -6.265625 L 5.828125 0 L 1.65625 0 L 1.65625 -15.359375 L 5.828125 -15.359375 L 5.828125 -9.671875 L 10.65625 -9.671875 L 10.65625 -15.359375 L 14.828125 -15.359375 Z M 14.828125 0 "/></g></g></g><g fill="#000000" fill-opacity="1"><g transform="translate(167.562381, 215.960196)"><g><path d="M 16.03125 -7.703125 C 16.03125 -5.117188 15.394531 -3.15625 14.125 -1.8125 C 12.863281 -0.46875 11.007812 0.203125 8.5625 0.203125 C 6.15625 0.203125 4.304688 -0.46875 3.015625 -1.8125 C 1.734375 -3.164062 1.09375 -5.132812 1.09375 -7.71875 C 1.09375 -10.28125 1.726562 -12.234375 3 -13.578125 C 4.28125 -14.921875 6.140625 -15.59375 8.578125 -15.59375 C 11.023438 -15.59375 12.878906 -14.925781 14.140625 -13.59375 C 15.398438 -12.257812 16.03125 -10.296875 16.03125 -7.703125 Z M 5.46875 -7.703125 C 5.46875 -4.734375 6.5 -3.25 8.5625 -3.25 C 9.613281 -3.25 10.390625 -3.609375 10.890625 -4.328125 C 11.398438 -5.046875 11.65625 -6.171875 11.65625 -7.703125 C 11.65625 -9.234375 11.394531 -10.363281 10.875 -11.09375 C 10.363281 -11.832031 9.597656 -12.203125 8.578125 -12.203125 C 6.503906 -12.203125 5.46875 -10.703125 5.46875 -7.703125 Z M 5.46875 -7.703125 "/></g></g></g><g fill="#000000" fill-opacity="1"><g transform="translate(184.710989, 215.960196)"><g><path d="M 12.8125 -10.46875 C 12.8125 -8.757812 12.300781 -7.4375 11.28125 -6.5 C 10.269531 -5.5625 8.832031 -5.09375 6.96875 -5.09375 L 5.8125 -5.09375 L 5.8125 0 L 1.65625 0 L 1.65625 -15.359375 L 6.96875 -15.359375 C 8.914062 -15.359375 10.375 -14.929688 11.34375 -14.078125 C 12.320312 -13.234375 12.8125 -12.03125 12.8125 -10.46875 Z M 5.8125 -8.484375 L 6.5625 -8.484375 C 7.1875 -8.484375 7.679688 -8.65625 8.046875 -9 C 8.421875 -9.351562 8.609375 -9.835938 8.609375 -10.453125 C 8.609375 -11.492188 8.03125 -12.015625 6.875 -12.015625 L 5.8125 -12.015625 Z M 5.8125 -8.484375 "/></g></g></g><g fill="#000000" fill-opacity="1"><g transform="translate(198.307985, 215.960196)"><g><path d="M 11.078125 0 L 10.328125 -2.875 L 5.34375 -2.875 L 4.5625 0 L 0 0 L 5.015625 -15.421875 L 10.546875 -15.421875 L 15.625 0 Z M 9.46875 -6.28125 L 8.796875 -8.796875 C 8.648438 -9.359375 8.460938 -10.082031 8.234375 -10.96875 C 8.015625 -11.863281 7.875 -12.503906 7.8125 -12.890625 C 7.75 -12.535156 7.625 -11.945312 7.4375 -11.125 C 7.25 -10.300781 6.835938 -8.6875 6.203125 -6.28125 Z M 9.46875 -6.28125 "/></g></g></g><g fill="#000000" fill-opacity="1"><g transform="translate(213.932973, 215.960196)"><g><path d="M 1.65625 -15.359375 L 7.015625 -15.359375 C 9.109375 -15.359375 10.660156 -15.046875 11.671875 -14.421875 C 12.679688 -13.804688 13.1875 -12.84375 13.1875 -11.53125 C 13.1875 -10.675781 12.960938 -9.941406 12.515625 -9.328125 C 12.078125 -8.722656 11.5 -8.332031 10.78125 -8.15625 L 10.78125 -8.046875 C 11.726562 -7.796875 12.414062 -7.375 12.84375 -6.78125 C 13.269531 -6.195312 13.484375 -5.4375 13.484375 -4.5 C 13.484375 -3.101562 12.957031 -2.003906 11.90625 -1.203125 C 10.863281 -0.398438 9.441406 0 7.640625 0 L 1.65625 0 Z M 5.8125 -9.46875 L 7.0625 -9.46875 C 7.65625 -9.46875 8.113281 -9.585938 8.4375 -9.828125 C 8.769531 -10.078125 8.9375 -10.441406 8.9375 -10.921875 C 8.9375 -11.785156 8.28125 -12.21875 6.96875 -12.21875 L 5.8125 -12.21875 Z M 5.8125 -6.421875 L 5.8125 -3.203125 L 7.265625 -3.203125 C 8.566406 -3.203125 9.21875 -3.75 9.21875 -4.84375 C 9.21875 -5.351562 9.039062 -5.742188 8.6875 -6.015625 C 8.34375 -6.285156 7.84375 -6.421875 7.1875 -6.421875 Z M 5.8125 -6.421875 "/></g></g></g><g fill="#000000" fill-opacity="1"><g transform="translate(228.433634, 215.960196)"><g><path d="M 1.65625 0 L 1.65625 -15.359375 L 5.828125 -15.359375 L 5.828125 0 Z M 1.65625 0 "/></g></g></g><g fill="#000000" fill-opacity="1"><g transform="translate(235.925642, 215.960196)"><g><path d="M 1.65625 0 L 1.65625 -15.359375 L 5.8125 -15.359375 L 5.8125 -3.34375 L 11.71875 -3.34375 L 11.71875 0 Z M 1.65625 0 "/></g></g></g><g fill="#000000" fill-opacity="1"><g transform="translate(248.450851, 215.960196)"><g><path d="M 1.65625 0 L 1.65625 -15.359375 L 5.828125 -15.359375 L 5.828125 0 Z M 1.65625 0 "/></g></g></g><g fill="#000000" fill-opacity="1"><g transform="translate(255.942859, 215.960196)"><g><path d="M 8.4375 0 L 4.28125 0 L 4.28125 -11.96875 L 0.53125 -11.96875 L 0.53125 -15.359375 L 12.171875 -15.359375 L 12.171875 -11.96875 L 8.4375 -11.96875 Z M 8.4375 0 "/></g></g></g><g fill="#000000" fill-opacity="1"><g transform="translate(268.657206, 215.960196)"><g><path d="M 7.140625 -9.671875 L 9.796875 -15.359375 L 14.28125 -15.359375 L 9.234375 -6 L 9.234375 0 L 5.046875 0 L 5.046875 -5.875 L 0 -15.359375 L 4.515625 -15.359375 Z M 7.140625 -9.671875 "/></g></g></g><g fill="#000000" fill-opacity="1"><g transform="translate(154.698336, 234.84413)"><g><path d="M 2.09375 -8.953125 C 3.15625 -9.960938 4.46875 -10.46875 6.03125 -10.46875 C 7.59375 -10.46875 8.90625 -9.960938 9.96875 -8.953125 C 11.03125 -7.953125 11.5625 -6.707031 11.5625 -5.21875 C 11.5625 -3.726562 11.03125 -2.472656 9.96875 -1.453125 C 8.90625 -0.429688 7.59375 0.078125 6.03125 0.078125 C 4.46875 0.078125 3.15625 -0.429688 2.09375 -1.453125 C 1.03125 -2.472656 0.5 -3.726562 0.5 -5.21875 C 0.5 -6.707031 1.03125 -7.953125 2.09375 -8.953125 Z M 6.046875 -8.890625 C 5.015625 -8.890625 4.128906 -8.535156 3.390625 -7.828125 C 2.660156 -7.117188 2.296875 -6.242188 2.296875 -5.203125 C 2.296875 -4.171875 2.664062 -3.296875 3.40625 -2.578125 C 4.144531 -1.859375 5.023438 -1.5 6.046875 -1.5 C 7.066406 -1.5 7.9375 -1.859375 8.65625 -2.578125 C 9.382812 -3.296875 9.75 -4.171875 9.75 -5.203125 C 9.75 -6.242188 9.382812 -7.117188 8.65625 -7.828125 C 7.9375 -8.535156 7.066406 -8.890625 6.046875 -8.890625 Z M 6.046875 -8.890625 "/></g></g></g><g fill="#000000" fill-opacity="1"><g transform="translate(166.75915, 234.84413)"><g><path d="M 10.40625 0 L 8.6875 0 L 3.125 -7.46875 L 3.125 0 L 1.375 0 L 1.375 -10.421875 L 3.09375 -10.421875 L 8.6875 -2.9375 L 8.6875 -10.421875 L 10.40625 -10.421875 Z M 10.40625 0 "/></g></g></g><g fill="#000000" fill-opacity="1"><g transform="translate(178.551946, 234.84413)"><g><path d="M 3.125 -1.59375 L 7.640625 -1.59375 L 7.640625 0 L 1.375 0 L 1.375 -10.421875 L 3.125 -10.421875 Z M 3.125 -1.59375 "/></g></g></g><g fill="#000000" fill-opacity="1"><g transform="translate(186.503141, 234.84413)"><g><path d="M 3.125 0 L 1.375 0 L 1.375 -10.421875 L 3.125 -10.421875 Z M 3.125 0 "/></g></g></g><g fill="#000000" fill-opacity="1"><g transform="translate(190.999887, 234.84413)"><g><path d="M 10.40625 0 L 8.6875 0 L 3.125 -7.46875 L 3.125 0 L 1.375 0 L 1.375 -10.421875 L 3.09375 -10.421875 L 8.6875 -2.9375 L 8.6875 -10.421875 L 10.40625 -10.421875 Z M 10.40625 0 "/></g></g></g><g fill="#000000" fill-opacity="1"><g transform="translate(202.792683, 234.84413)"><g><path d="M 8.8125 -8.84375 L 3.125 -8.84375 L 3.125 -6.03125 L 8.21875 -6.03125 L 8.21875 -4.453125 L 3.125 -4.453125 L 3.125 -1.578125 L 9 -1.578125 L 9 0 L 1.375 0 L 1.375 -10.421875 L 8.8125 -10.421875 Z M 8.8125 -8.84375 "/></g></g></g><g fill="#000000" fill-opacity="1"><g transform="translate(212.560452, 234.84413)"><g/></g></g><g fill="#000000" fill-opacity="1"><g transform="translate(216.40204, 234.84413)"><g><path d="M 4.796875 -10.5 C 6.140625 -10.5 7.351562 -10.140625 8.4375 -9.421875 L 7.71875 -7.875 C 6.65625 -8.519531 5.632812 -8.84375 4.65625 -8.84375 C 4.132812 -8.84375 3.722656 -8.75 3.421875 -8.5625 C 3.117188 -8.375 2.96875 -8.101562 2.96875 -7.75 C 2.96875 -7.40625 3.101562 -7.109375 3.375 -6.859375 C 3.65625 -6.617188 4.003906 -6.441406 4.421875 -6.328125 C 4.835938 -6.222656 5.285156 -6.082031 5.765625 -5.90625 C 6.253906 -5.726562 6.707031 -5.539062 7.125 -5.34375 C 7.550781 -5.15625 7.898438 -4.851562 8.171875 -4.4375 C 8.441406 -4.03125 8.578125 -3.535156 8.578125 -2.953125 C 8.578125 -2.035156 8.210938 -1.300781 7.484375 -0.75 C 6.753906 -0.207031 5.804688 0.0625 4.640625 0.0625 C 3.847656 0.0625 3.078125 -0.0820312 2.328125 -0.375 C 1.585938 -0.675781 0.941406 -1.082031 0.390625 -1.59375 L 1.140625 -3.109375 C 1.671875 -2.617188 2.25 -2.242188 2.875 -1.984375 C 3.507812 -1.722656 4.109375 -1.59375 4.671875 -1.59375 C 5.285156 -1.59375 5.765625 -1.703125 6.109375 -1.921875 C 6.453125 -2.148438 6.625 -2.460938 6.625 -2.859375 C 6.625 -3.210938 6.484375 -3.507812 6.203125 -3.75 C 5.929688 -4 5.585938 -4.179688 5.171875 -4.296875 C 4.753906 -4.410156 4.300781 -4.546875 3.8125 -4.703125 C 3.320312 -4.867188 2.867188 -5.046875 2.453125 -5.234375 C 2.035156 -5.421875 1.6875 -5.71875 1.40625 -6.125 C 1.132812 -6.53125 1 -7.019531 1 -7.59375 C 1 -8.476562 1.34375 -9.179688 2.03125 -9.703125 C 2.726562 -10.234375 3.648438 -10.5 4.796875 -10.5 Z M 4.796875 -10.5 "/></g></g></g><g fill="#000000" fill-opacity="1"><g transform="translate(225.66355, 234.84413)"><g><path d="M 8.484375 -8.84375 L 5.1875 -8.84375 L 5.1875 0 L 3.421875 0 L 3.421875 -8.84375 L 0.140625 -8.84375 L 0.140625 -10.421875 L 8.484375 -10.421875 Z M 8.484375 -8.84375 "/></g></g></g><g fill="#000000" fill-opacity="1"><g transform="translate(234.284798, 234.84413)"><g><path d="M 2.09375 -8.953125 C 3.15625 -9.960938 4.46875 -10.46875 6.03125 -10.46875 C 7.59375 -10.46875 8.90625 -9.960938 9.96875 -8.953125 C 11.03125 -7.953125 11.5625 -6.707031 11.5625 -5.21875 C 11.5625 -3.726562 11.03125 -2.472656 9.96875 -1.453125 C 8.90625 -0.429688 7.59375 0.078125 6.03125 0.078125 C 4.46875 0.078125 3.15625 -0.429688 2.09375 -1.453125 C 1.03125 -2.472656 0.5 -3.726562 0.5 -5.21875 C 0.5 -6.707031 1.03125 -7.953125 2.09375 -8.953125 Z M 6.046875 -8.890625 C 5.015625 -8.890625 4.128906 -8.535156 3.390625 -7.828125 C 2.660156 -7.117188 2.296875 -6.242188 2.296875 -5.203125 C 2.296875 -4.171875 2.664062 -3.296875 3.40625 -2.578125 C 4.144531 -1.859375 5.023438 -1.5 6.046875 -1.5 C 7.066406 -1.5 7.9375 -1.859375 8.65625 -2.578125 C 9.382812 -3.296875 9.75 -4.171875 9.75 -5.203125 C 9.75 -6.242188 9.382812 -7.117188 8.65625 -7.828125 C 7.9375 -8.535156 7.066406 -8.890625 6.046875 -8.890625 Z M 6.046875 -8.890625 "/></g></g></g><g fill="#000000" fill-opacity="1"><g transform="translate(246.345612, 234.84413)"><g><path d="M 7.984375 0 L 6.078125 -3.15625 C 5.972656 -3.144531 5.8125 -3.140625 5.59375 -3.140625 L 3.125 -3.140625 L 3.125 0 L 1.375 0 L 1.375 -10.421875 L 5.59375 -10.421875 C 6.925781 -10.421875 7.957031 -10.109375 8.6875 -9.484375 C 9.425781 -8.867188 9.796875 -7.992188 9.796875 -6.859375 C 9.796875 -6.023438 9.609375 -5.320312 9.234375 -4.75 C 8.867188 -4.175781 8.335938 -3.753906 7.640625 -3.484375 L 9.984375 0 Z M 3.125 -4.71875 L 5.59375 -4.71875 C 7.28125 -4.71875 8.125 -5.414062 8.125 -6.8125 C 8.125 -8.164062 7.28125 -8.84375 5.59375 -8.84375 L 3.125 -8.84375 Z M 3.125 -4.71875 "/></g></g></g><g fill="#000000" fill-opacity="1"><g transform="translate(257.111006, 234.84413)"><g><path d="M 8.8125 -8.84375 L 3.125 -8.84375 L 3.125 -6.03125 L 8.21875 -6.03125 L 8.21875 -4.453125 L 3.125 -4.453125 L 3.125 -1.578125 L 9 -1.578125 L 9 0 L 1.375 0 L 1.375 -10.421875 L 8.8125 -10.421875 Z M 8.8125 -8.84375 "/></g></g></g></svg>